<svg width="14" height="14" viewBox="0 0 14 14" fill="none" xmlns="http://www.w3.org/2000/svg">
<g id="Group">
<path id="Combined Shape" fill-rule="evenodd" clip-rule="evenodd" d="M4.8147 0.5862C2.71658 1.07835 1.07835 2.71658 0.5862 4.8147C0.249038 6.25209 0.249038 7.7479 0.586199 9.18531C1.07835 11.2834 2.71658 12.9216 4.81471 13.4138C6.25209 13.7509 7.7479 13.7509 9.1853 13.4138C11.2834 12.9216 12.9216 11.2834 13.4138 9.18531C13.7509 7.7479 13.7509 6.25209 13.4138 4.81471C12.9216 2.71658 11.2834 1.07835 9.18531 0.586199C7.7479 0.249038 6.25209 0.249038 4.8147 0.5862ZM8.88082 1.8843C10.4859 2.2608 11.7392 3.51408 12.1157 5.1192C12.4059 6.3563 12.4059 7.64369 12.1157 8.88082C11.7392 10.4859 10.4859 11.7392 8.88081 12.1157C7.64369 12.4059 6.3563 12.4059 5.1192 12.1157C3.51408 11.7392 2.2608 10.4859 1.8843 8.88082C1.59412 7.64369 1.59412 6.3563 1.8843 5.1192C2.2608 3.51409 3.51409 2.2608 5.1192 1.8843C6.26794 1.61484 7.46003 1.5956 8.61499 1.82656L8.88082 1.8843ZM7.43644 4.92225C7.39793 4.59069 7.11615 4.33333 6.77426 4.33333C6.40607 4.33333 6.1076 4.63181 6.1076 5V7.4626L6.11298 7.54719C6.1379 7.74218 6.2481 7.91799 6.41638 8.02506L8.30878 9.22913L8.37679 9.26708C8.6772 9.41258 9.0456 9.31299 9.22913 9.02454L9.26708 8.95654C9.41258 8.65613 9.31299 8.28773 9.02454 8.1042L7.44066 7.09666L7.44093 5L7.43644 4.92225Z" fill="#E6521F"/>
</g>
</svg>
