<svg width="12" height="14" viewBox="0 0 12 14" fill="none" xmlns="http://www.w3.org/2000/svg">
<g id="paperclip">
<path id="Path" fill-rule="evenodd" clip-rule="evenodd" d="M10.72 7.28L6.6 11.4067C5.47873 12.4031 3.7751 12.353 2.71438 11.2923C1.65367 10.2316 1.60352 8.52793 2.6 7.40666L7.93334 2.07333C8.59461 1.44518 9.63206 1.44518 10.2933 2.07333C10.9389 2.72755 10.9389 3.77911 10.2933 4.43333L5.69334 9.02666C5.56948 9.16004 5.38388 9.21721 5.20645 9.17664C5.02901 9.13608 4.8867 9.00393 4.83311 8.82998C4.77953 8.65603 4.82282 8.46671 4.94667 8.33333L8.36667 4.92C8.62808 4.65858 8.62808 4.23474 8.36667 3.97333C8.10525 3.71191 7.68142 3.71191 7.42 3.97333L4 7.4C3.65436 7.74296 3.45995 8.20974 3.45995 8.69666C3.45995 9.18359 3.65436 9.65036 4 9.99333C4.7261 10.685 5.86724 10.685 6.59334 9.99333L11.1867 5.39333C12.2881 4.21129 12.2556 2.36929 11.1132 1.22684C9.97071 0.0843938 8.12871 0.0518939 6.94667 1.15333L1.61334 6.48666C0.119178 8.14153 0.192523 10.6794 1.77976 12.2452C3.367 13.811 5.90559 13.8498 7.54 12.3333L11.6667 8.21333C11.8358 8.04422 11.9018 7.79775 11.8399 7.56674C11.778 7.33574 11.5976 7.15531 11.3666 7.09341C11.1356 7.03151 10.8891 7.09756 10.72 7.26666V7.28Z" fill="#091B3D" fill-opacity="0.4"/>
</g>
</svg>
