<svg width="19" height="20" viewBox="0 0 19 20" fill="none" xmlns="http://www.w3.org/2000/svg">
<g id="Group">
<path id="Path" fill-rule="evenodd" clip-rule="evenodd" d="M15.9882 0H3.87979C1.44158 0 0.0217475 2.7543 1.43617 4.74033L5.56554 10.5384C5.92745 11.0466 6.12193 11.6549 6.12193 12.2788V16.3293C6.12193 18.3566 7.76535 20 9.79263 20C11.8199 20 13.4633 18.3566 13.4633 16.3293V12.3385C13.4633 11.687 13.6754 11.0532 14.0676 10.5329L18.384 4.80562C19.874 2.82882 18.4637 0 15.9882 0ZM3.87979 2H15.9882C16.8134 2 17.2835 2.94292 16.7869 3.60186L12.4704 9.32913C11.8169 10.1962 11.4633 11.2526 11.4633 12.3385V16.3293C11.4633 17.252 10.7153 18 9.79263 18C8.86992 18 8.12193 17.252 8.12193 16.3293V12.2788C8.12193 11.2391 7.7978 10.2252 7.19464 9.37822L3.06525 3.58011C2.59377 2.9181 3.06705 2 3.87979 2Z" fill="#091B3D"/>
</g>
</svg>
